<?xml version="1.0" encoding="UTF-8"?>
<svg id="Calque_1" xmlns="http://www.w3.org/2000/svg" version="1.1" viewBox="0 0 989.71 420.07">
  <!-- Generator: Adobe Illustrator 29.2.1, SVG Export Plug-In . SVG Version: 2.1.0 Build 116)  -->
  <defs>
    <style>
      .st0 {
        fill: #d8a1a9;
      }
    </style>
  </defs>
  <path class="st0" d="M85.7,80.68c.49.49,1.02.98,1.61,1.34.17.1.5.34.7.21.03-.05.04-.1.04-.15,0-.28-.31-.66-.43-.83-.34-.48-.74-.92-1.15-1.34-.49-.49-1.02-.98-1.61-1.34-.12-.07-.54-.37-.7-.21-.21.22.29.84.39.98.34.48.73.92,1.15,1.33Z"/>
  <path class="st0" d="M886.48,53.92c18.51-3.8,37.28-6.29,56.05-8.47,10.77,2.4,22.76,1.09,34.01,2.02,5.35,1.11,9.05-.65,4.57-5.77-19.18-26.35-61.02-15.26-89.16-14.03-14.74,1.68-29.43,3.75-44.08,6.16.23-3.26.46-6.51.65-9.77-1.14-4.28-5.5-7.15-8.57-10.09-24.98-20.6-18.42-6.69-23.44,14.98-.46,3.59-.88,7.19-1.3,10.79-30.41,5.99-60.58,13.27-90.47,21.34-.46-.44-.92-.89-1.39-1.32-4.82-4.3-19.21-17.46-25.55-16.11-1.25.41-1.43.56-1.8,1.85-.58,2.28-.56,4.7-.91,7.02-3.5,33.24-7.92,66.4-15.55,98.96-2.2,8.55-4.64,17.05-6.93,25.57-2.86,8.85-5.96,17.62-8.88,26.45-11.99,31.33-25.25,62.47-43.14,90.95-.45.69-5.64,8.12-5.69,8.07-.42-1.67-.67-3.48-1.07-5.18-5.98-29.06-10.52-58.47-12.73-88.07-.17-1.64-.31-3.29-.45-4.93,4.16-15.99,6.77-32.12,7.5-48.04.37-15.11-2.85-28.12-9.24-40.09.15-6.33.35-12.66.63-18.98.42-11.71,1.56-23.4,2.07-35.1.05-1.36-.04-2.74-.02-4.1.17-1.95.3-3.84-.67-5.63-1.49-4.02-13.49-16.13-17.78-14.66-.52.05-.8.36-.83.94-.73,1.8-1.46,3.65-1.96,5.53-1.75,7.27-3.15,14.59-4.12,22-.96,6.21-1.7,12.46-2.31,18.72-10.39-10.24-21.9-19.42-35.14-25.53-27.64-12.95-57.26-5.89-83.8,6.26-4.35-4.55-9.07-8.8-14.36-12.23-8.94-6.64-15.64,2.15-21.4,8.28-.27.31-.89,1.27-1.25,1.47-.6.11-1.2.2-1.8.29-5.1.76-10.28.92-15.43.84-13.99-.32-27.95-1.65-41.91-2.48-12.86-4.24-26.5-5.54-39.95-6.68-23.84-1.52-47.75-1.67-71.63-1.53-12.69.11-25.38.14-38.06.67-6.25.26-12.6.62-18.78,1.68-1.85.31-4.07.77-5.65,1.82-8.49,5.41,18.45,31.27,23.98,35.79,4.77,4.12,9.9,8.13,15.84,10.41.91.35.67.33.57,1.18-1.55,12.44-2.42,24.97-3.38,37.47-1.4,21.85-2.63,43.71-3.35,65.59.03.48.06,1.05-.08,1.3-3.19,2.18-6.52,4.36-9.82,6.44-.64.41-1.59.8-2.1,1.34-1.28,2.2,1.07,5.32,2.14,7.32,2.06,3.39,4.6,6.53,7.18,9.53,1.74,2.04,1.77,1.37,1.72,3.02-.23,8.14-.43,16.28-.65,24.41-.06,1.96-.11,3.92-.17,5.88-6.18-3.15-12.91-5.22-19.89-6.12-9.3-37.79-17-75.98-22.84-114.46-5.12-23.57-3.13-50.33-16.28-71.26-7.41-9.07-25.3-31.22-37.39-30.17-7.09,17.07-7.31,37.39-11.6,55.61-8.29,48.33-17.48,96.54-30.01,143.97-1.98,7.91-4.2,15.74-6.43,23.58-.21.73-.27.61-1.01.77-14.03,2.93-27.86,6.77-41.86,9.78-5.85,1.45-11.99,2.27-17.68,4.12-1,1,.21,3.24.62,4.09,5.95,9.63,25.29,33.64,37.63,29.99,2.71-.65,5.37-1.44,8.03-2.29.58-.18.71-.38.51.3-3.04,10.03-6.29,20-9.38,30.02-3.7,11.97-7.7,23.91-10.39,36.16-1.98,6.23,3.45,11.19,7.27,15.34,4.15,4.07,8.43,8.59,13.89,10.8,2.65.31,3.55-3.62,4.81-5.55,12.98-28.11,22.87-57.58,32.85-86.86,1.44-4.32,2.66-8.79,4.12-13.07,6.72-2.33,14.17-3.7,21.23-5.13,16.47-3.29,33.43-6.18,50.1-7.27,11.61,34.19,17.72,73.91,46.54,98.45,31.85,29.6,21.09.36,19.27-22.55-.11-1.05-.24-2.12-.36-3.19.41.3.81.61,1.23.9,3.9,2.75,8.54,5.37,13.49,4.67,7.59-1.25,14.41-5.24,20.98-9.03,26.72-16.71,50.62-37.7,72.29-60.5,6.98-7.43,13.65-15.15,19.59-23.45.6-.86.39-.66.56.45,3.41,29.3,17.88,55.97,39.27,76.1,39.96,41.66,75.06,32.96,113.44-5.09,23.56-24.06,44.76-53.97,60.58-86.37,1.02,6.68,2.12,13.34,3.34,19.98,5.01,26.63,7.55,37.1,28.89,55.41,4.08,3.52,8.38,6.77,13.03,9.51,10.19,6.7,18.46,2.33,25.85-5.75,11.1-12.1,18.64-26.96,26.4-41.3,9.08-17.04,17.03-34.65,24.14-52.6,1.78-3.98,3.25-8.08,4.68-12.18.2-.48.19-.34.18-.1.87,11.77,2.23,23.52,3.42,35.28,1.83,17.83,4.06,35.62,6.36,53.39.32,4.25,1.03,8.31,3.7,11.79,8.47,12.3,24.64,27.32,37.85,34.13,1.29.68,2.66,1.06,4.1,1.14,1.25-.18,1.42-.8,2.05-1.7,2.5-3.64,3.72-7.97,5.22-12.08,4-11.69,7.64-23.45,10.94-35.36,1.42-7.05-18.06-24.37-24.04-29.15-3.54-2.82-3.33-1.32-3.56-3.58-.05-.5-.1-.99-.15-1.49-4.78-46.36-7.19-92.91-7.8-139.5-.2-12.67-.43-25.33-.8-38-.26-5.86-.23-11.79-.92-17.62,5.6.41,10.83-3.16,20.34-5.6,16.22-5.1,32.57-9.77,49.02-14.06-2.35,26.16-3.86,52.41-4.69,78.66-2.11,60.8-2.57,121.87,4.86,182.33,3.27,14.97,26.79,30.1,40.38,35.51,9.57-.12,8.93-15.17,11.66-22.09,4.98-19.98,9.22-40.14,13.4-60.31-2.92-12.61-23.84-25.08-34.9-31.28-1.43-63.68-.89-127.5,3.18-191.1,13.48-3.07,27.01-5.91,40.58-8.53ZM113.6,262.16c10.52-36.52,18.75-73.89,26.79-111.01,6.48,36.07,14.61,72.07,24.01,107.53-16.99-.45-34,1.47-50.8,3.48ZM243.79,106.19c.04-.06,1.7-.05,1.98-.07,14.98-.54,29.88-2.17,44.84-2.96,23.57-1.25,47.17-1.91,70.77-1.94-16.36,16.96-35.39,31.01-54.2,45.11-21.33,15.71-43.11,30.81-64.66,46.21-.26.2-.54.38-.83.53.35-28.35.97-56.7,2.04-85.03,0-.47-.16-1.58.05-1.85ZM204.88,292.18c-.48.94-.44-.87-.67-1.23-1.76-3.68.91-1.9,3.3-2.11-.93,1.07-1.84,2.16-2.63,3.34ZM293.23,280.26c-15.58,15.35-32.25,29.82-50.05,42.47-.12-3.94-.23-7.9-.35-11.85,1.05-1.67,2.25-3.3,3.63-4.86,2.88-5.99.05-11.55-4.17-16.57-.23-10.91-.4-21.82-.49-32.69,1.16.66,2.4,1.03,3.72,1.11,1.45-.59,2.96-1.01,4.5-1.34,4.45-1.02,8.93-1.92,13.41-2.81,19.33-3.78,38.98-6.13,58.69-6.14-8.6,11.75-18.71,22.31-28.89,32.69ZM371.25,169.95c-3.8,17.93-6.15,36.25-7.11,54.55-.38,7.09-.48,14.2-.28,21.3.05.53-.18.29-.68-.74-3.12-3.87-6.56-7.83-10.12-11.3-9.96-10.22-21.86-19.63-36.22-22.4-.61-.13-1.22-.26-1.83-.37-.45,0-.42-.12.08-.33,10.12-7.11,20.16-14.34,30.21-21.54,8.49-6.25,17.03-12.45,25.29-18.99.3-.24.83-1.07.64-.18ZM523.51,253.16c-20.24,32.66-65.95,95.09-109.36,87.32-.83-.18-1.66-.39-2.49-.61-.36-.27-.73-1.56-.91-1.96-4.21-9.94-6.67-20.54-8.46-31.15-6.21-40.05-2.19-81.3,7.07-120.58,1.44-5.9,3.08-11.76,4.86-17.56.94-2.19.86-5.16,3.01-6.53,24.99-22.24,50.54-44.7,81.78-57.71,20.37-8.7,43.63-15.09,65.46-8.24.71,0,1.04.37.98,1.11.4,1.49.75,3,1.05,4.51,7.09,51.07-17.39,108.17-42.99,151.41Z"/>
  <path class="st0" d="M939.49,302.71c-3.73-1.23-5.33,3.01-7.29,5.3-7.16,4.22-12.98,10.39-16.56,18.1-8.51,14.09,13.19,29.11,22.45,37.57,14.25,14.43,32.05,1.27,43.39-10.08,16.16-12.96-30.56-46.41-41.99-50.89Z"/>
</svg>