<?xml version="1.0" encoding="UTF-8"?>
<svg id="Calque_1" xmlns="http://www.w3.org/2000/svg" version="1.1" viewBox="0 0 1133.22 352.8">
  <!-- Generator: Adobe Illustrator 29.2.1, SVG Export Plug-In . SVG Version: 2.1.0 Build 116)  -->
  <defs>
    <style>
      .st0 {
        fill: #d8a1a9;
      }
    </style>
  </defs>
  <path class="st0" d="M1057.74,71.41c11.52.11,24.19,2.53,35.16-1.3-2.07-9.15-15.47-17.31-23.65-21.79-16.12-3.2-32.94-2.54-49.26-4.93-36.2-4.38-72.35-9.16-108.54-13.62-8.64-6.1-16.57-8.98-19.51-2.37-27.03-3.22-54.08-6.19-81.2-8.59-26.25-2.2-52.64-8.06-78.46-10.83-.71,10.09,29.13,31.91,39.32,34.93,1.04.16,2.09.3,3.14.45-12.28,6.4-21.78,22.75-27.53,34.31-16.84,35.3-22.21,74.73-24.34,113.41-.02.62-.04,1.24-.07,1.86-1.36-6.25-2.67-12.51-3.91-18.79-5.03-25.06-8.76-50.36-12.5-75.63-3.31-28.99-9.1-51.64-33.29-70.35-17.49-14.86-19.44-10.79-22.47,9.38-2.91,15.7-6.18,31.31-9.93,46.82-25.7-15.15-65.06-22.4-108.58-25.49-1.84-3.19-4.08-6-6.83-8.26-14.92-12.85-7.1-1.2-14.87,7.06-80.06-3.28-168.46,4.8-210.2,2.5-13.41.32-23.65-3.88-9.65,11.36,3.45,3.33,7.05,6.9,10.86,10.22-.42,1.36-.75,3.03-1.48,4.46.39,2.56,2.66,4.44,4.25,6.36-.13,13.8-.22,27.63-.43,41.47-17.38-22.17-41.78-40.17-64.14-48.89-31.02-11.97-61.47,5.59-84.35,25.73-12.62-8.81-11.82-6.66-15.68,6.32-15.34-31.89-35-66.97-68.85-81.76-19.84-3.36-25.64,23.9-31.35,38.05-11.57,37.66-16.74,77.04-20.29,116.18-2.07,35.99-6.34,72.63-2.56,108.55,5.51,16.03,33.86,45.98,51.75,44.79,34.64-9.96,66.45-77.43,82.92-108.51,10.56,42.96,40.31,83.84,81.45,101.61,23.61,5.4,44.45-11.34,60.51-35.64,8.26,8.28,20.61,22.44,32.1,23.01,15.36-54.14,27.39-109.61,28.2-166.13,9.8,15.55,129.52,163.82,139.62,138.44-2.25-59.28-4.09-118.67-10.53-177.71-.11-1.17-.21-2.35-.32-3.53-.51-1.42,3.96,2.12,4.62-1.22-1.04-8.88-7.8-15.94-13.54-22.37-1.37-1.37-2.75-2.75-4.15-4.14,16.57-.82,33.14-1.4,49.67-1.5,3.93,44.28,10.19,88.47,19.37,131.98,3.77,17.39,8.47,34.61,13.94,51.54,3.97,9.01,11.9,15.68,19.16,22.07-2.5,7.48.39,9.57,9.72,16.58,13.54,5.05,41.05-70.44,47.23-83.03,1.17-2.79,2.31-5.68,3.47-8.44,6.29,2,12.63,4.37,18.84,6.69,17.77,6.29,34.38,15.25,50.28,25.31,2.76,2.4,7.75,3.24,8.63,7.12,4.54,13.67,10,27.33,20.67,37.45,5.3,4.74,28.6,31.67,31.98,15.88,1.81-5.07,1.71-9.89.43-14.47,13.14,9.5,28.27,14.77,43.44,4.68,38.04-22.89,65.38-60.22,88.17-97.55,12.19-21.02,22.07-44.62,28.91-67.31,5.82,30.41,13.06,60.56,21.28,90.42,4.85,14.38,4.72,31.31,16.1,42.52,9.81,9.76,23.46,26.13,37.62,27.21-4.91-29.29-15.98-58.77-21.76-88.42-8.23-35.7-14.03-71.89-20.96-107.86-2.51-13.09-5.48-26.77-13.14-37.89,2.3.24,4.6.48,6.9.73,36.18,3.86,72.31,8.47,108.62,10.87ZM56.81,281.88c-.32.42-.67.81-1.05,1.18,1.51-49.18,6.67-179.78,40.35-213.24,13.47,20.99,22.04,45.26,38.08,64.58-18.09,52.55-42.78,103.75-77.39,147.48ZM269.97,222.24c-13.22,28.56-32.67,70.31-68.01,73.24-10.32-24.29-14.74-50.88-15.66-77.19-.57-19.28-.15-38.63.29-57.88,23.24-17.38,47.67-41.4,79.23-35.98,4.11,1.29,11.9,1.22,14.04,5.13,10.08,30.37,1.26,63.79-9.89,92.68ZM439.25,111.24c4.49,45.15,4.83,90.55,7.37,135.82-.03.7.36,2.05-.4.93-10.38-11.78-20.76-23.59-30.38-36.01-23.91-27.84-42.94-59.3-65.81-87.92-6.11-7.7-13.23-14.54-20.91-20.66-1.37-3.46-3.37-6.58-5.75-9.44,3.33.63,6.81.71,10.47.05,34.23-.68,68.73-3.19,103.26-5.35.74,7.52,1.49,15.05,2.15,22.57ZM618.37,161.64c-8.29,20.92.03,20.55-20.23,13.41-15.16-5.52,4.19,17.23,7.69,20.48,2.1,1.05-1.31,6.14-1.62,8.28-7.58,22.02-15.81,43.81-24.26,65.51-.81-.72-1.59-1.45-2.33-2.17-2.37-1.94-2.15-1.09-2.7-2.73-14.72-46.9-22.66-95.58-30.18-144.07-2.39-9.8-3.07-22.57-4.84-34.84,32.81.72,65.45,3.78,97.71,11.09-.4,1.52-.79,3.05-1.21,4.57-6.83,5.98-11.06,6.15-3.56,12.77-4.58,15.97-9.55,31.83-14.47,47.7ZM641.13,192.07c11.71-30.51,22.83-61.45,32.32-92.71,6.32,43.75,15.82,87.02,27.71,129.59-19.07-13.73-39.17-26.16-60.03-36.87ZM859.73,143.53c-23.31,44.28-53.19,88.16-95.77,115.79-1.5-58.33,1.16-135.76,42.62-180.73,1.21-.78,2.81-3.3,2.92-.67,4.03,15.54,3.7,31.73,5.66,47.54,1.23,7.41,8.4,12.24,13.87,16.73,12.79,11.92,10.53-18.11,11.59-24.89,1.78-29.54-14.69-54.98-38.9-70.38,28.24,3.31,56.6,5.53,84.95,7.85-5.73,30.53-12.79,60.79-26.93,88.75Z"/>
  <path class="st0" d="M1102.52,220.78c-6.65-4.33-14.56-12.54-23.02-8.62-3.52,1.95-8.66,4.03-9.55,8.35-24.41,15.73-7.04,31.56,8.62,45.09,19.44,18.39,34.18,16.61,47.72-6.74,9.49-13.83-14.81-29.64-23.76-38.09Z"/>
</svg>