<?xml version="1.0" encoding="UTF-8"?>
<svg id="Calque_1" xmlns="http://www.w3.org/2000/svg" version="1.1" viewBox="0 0 1065.95 420.07">
  <!-- Generator: Adobe Illustrator 29.2.1, SVG Export Plug-In . SVG Version: 2.1.0 Build 116)  -->
  <defs>
    <style>
      .st0 {
        fill: #d8a1a9;
      }
    </style>
  </defs>
  <path class="st0" d="M1020.19,363.45c-24.56-19.09-48.16-39.42-73.61-57.32-74-52.24-155.56-100.91-248.04-107.12,4.85-9.33,10.16-18.9,15.19-28.22,5.33-7.7,13.05-13.56,18.77-21,19.33-23.47,39.01-47.23,52.38-74.73,3.99-7.25,5.86-16.73-.96-22.88-6.39-6.19-13.6-16.26-23.15-16.32-13.94,13.51-26.52,29.05-38.75,44.3-14.01,17.58-27.98,35.23-40.95,53.6-5.3,7.39-10.1,15.19-15.39,22.54-6.49,5.64-12.96,11.31-19.45,16.95-11.69,9.85-24.12,19.04-37.1,27.05-6.76.76-13.5,1.67-20.2,2.91-3.13.47-6.32,1.45-9.42,1.83-.13-.34.07-1.2.09-1.57,1.91-26.91,5.25-53.71,8.81-80.45.93-9.12,3.12-18.27,2.15-27.46-5.46-15.35-20.04-26.5-32.48-36.36-3.32-2.02-7.86-6.18-11.92-3.87-3.02,6.91-4.68,14.67-7.15,21.89-11.23,36.47-21.7,73.19-29.81,110.49,1.22-33.56-7.63-67.85-26.63-95.7-26.83-38.7-90.02-94.96-106.3-16.45-2.03,7.62-3.62,15.35-5.09,23.1-.37,1.9.21,1.54-2.26-.34-1.7-1.3-3.51-2.64-5.47-3.53-7-4.04-6.85,23.32-8.54,28.27-3.18,3.45-1.45,3.17-.79,6.45-.88,7.14-1.68,14.29-2.45,21.45-9.31-9.76-20.29-18.15-31.14-25.05-30.41-17.57-65.11,5.38-87.84,25.81.9-15.26-4.8-29.07-16.45-39.02-7.78-6.82-20.43-22.03-31.22-20.89-6.91,15.47-9.15,33-13.17,49.46-10.34,48.15-20.84,96.41-34.22,143.77-7.77-36.8-13.51-74.07-18.48-111.36-2.24-12.47-2.81-25.58-7.97-37.29-9.75-15.39-23.89-29.59-40.42-37.45-4.7-2.36-5.43,3.3-5.67,6.66-4.36,45.82-8.62,91.75-17.29,137.01-3.49-22.77-6.67-45.72-9.29-68.57-3.92-8.72-22.57-28.57-31.99-28.42-2.14,37.81,7.98,76.66,12.02,114.51,2.67,17.95,5.38,35.89,7.71,53.88,1.17,6.14.26,13.06,4.1,18.35,9.02,12.55,20.89,24.66,35.02,31.19,6.69,1.64,8.24-17.15,10.64-22.02,8.12-29.08,14-58.81,18.9-88.55,5.85,28.41,12.59,56.8,20.04,84.89,5.46,18.65,23.13,31.94,38.45,42.71,5.9,4.36,9.77,2.55,12.07-4.02,6.66-16.34,11.12-33.5,16.06-50.41,5.25-18.19,9.82-36.58,14.4-54.93,1.96,9.03,4.26,22.74,7.77,32.96,8.83,29.88,42.94,69.68,74.27,75.58,25.81.07,49.53-28.54,67.18-63.43,4.83,6.57,13.2,13.58,27.08,23.11.91.41,3.3,1.66,4.34.63.84-6.93,1.18-14.53,2.68-21.56,3.31-19.2,7.28-38.28,10.74-57.46.93-3.79,1.38-9.81,2.54-12.53,6.17,7.85,12.47,15.74,19.12,23.25,29.16,33.6,59.94,67.26,97.88,91.06,31.06,21.07,27.27-28.37,30.22-46.57,2.35,11.27,3.39,23.43,9.74,33.38,10.71,14.85,24.44,30.36,41.82,37.08,19.26,2.48,35.5-57.93,45.98-73.12,12.97-26.16,27.16-52.4,41.53-77.49,111.38-7.86,204.69,38.18,291.58,103.38,18.1,13.53,35.25,28.29,53.08,42.16,8.37,5.42,16.55,16.03,27,15.88-.99-12.81-20.7-25.67-30.27-34.05ZM246.4,336.19c-9.66-36.62-13.58-81.35-11.93-116.13,3.1,1.79,8.19,6.51,11.67,3.63,5.88-6.3,11.96-12.4,18.04-18.52,18.06-18.21,38.74-36.2,64.4-41.93,1.71-.32,3.26-1.42,2.86,1.2,1.39,49.9-36.38,152.39-85.04,171.75ZM410.44,142.36c6.23-23.03,8.34-68.88,41.19-65.93,25.9,46,23.98,148.34-51.09,133.16-.53-.14-1.05-.29-1.58-.44,3.62-22.27,7.06-44.65,11.48-66.8ZM495.58,281.18c-2.17,10.24-.21,58.25-19.71,40.17-29.05-24.99-52.6-55.82-75.06-86.68-.2-.3-.4-.6-.59-.9,34.98,25.01,87.94,30.44,103.7-18.6-3.69,21.88-6.37,43.91-8.34,66.01ZM606.97,251.16c-9.79,17.04-18.77,34.52-27.35,52.19-.12.28-1.56,2.68-1.5,3.11-.54-17.5-1.25-35.05-.66-52.57-.09-1.36.78-.97,2.62,1.17,7.87,5.64,16.53-.87,24.45-3.18.37.02,3.07-1.51,2.45-.72Z"/>
  <path class="st0" d="M953.91,260.98c7.58,1.94,15.73-10.07,17.97-16.22-.23-.36-.23-.68,0-.96,3.13-5.41-3.06-6.07,1.27-9.16,11.45-8.96-11.17-23.42-17.31-29.83-8.91-7.3-21.45-17.49-31.2-5.75-8.1,2.38-12.87,11.3-16.17,18.53-.7,7.2,6.31,12.62,10.54,17.66,10.14,10.15,21.37,20.48,34.91,25.73Z"/>
</svg>